<?xml version="1.0" standalone="no"?>
<!DOCTYPE svg PUBLIC "-//W3C//DTD SVG 20010904//EN"
 "http://www.w3.org/TR/2001/REC-SVG-20010904/DTD/svg10.dtd">
<svg version="1.0" xmlns="http://www.w3.org/2000/svg"
 width="524.000000pt" height="450.000000pt" viewBox="0 0 524.000000 450.000000"
 preserveAspectRatio="xMidYMid meet">

<g transform="translate(0.000000,450.000000) scale(0.100000,-0.100000)"
fill="#000000" stroke="none">
<path d="M3436 3640 c-148 -24 -274 -71 -390 -147 -52 -34 -227 -202 -656
-629 l-585 -584 -139 139 c-77 76 -148 156 -159 177 -14 26 -22 65 -25 120 -4
72 -1 89 20 136 33 71 75 118 140 154 48 26 62 29 143 29 98 0 149 -18 208
-73 l28 -26 217 217 217 218 -49 45 c-98 90 -258 167 -408 198 -121 25 -294
21 -413 -9 -170 -43 -302 -118 -428 -242 -338 -333 -369 -871 -73 -1238 36
-44 211 -226 390 -405 l326 -325 1075 1075 c591 591 1075 1078 1075 1081 0 11
-121 56 -198 73 -92 21 -238 28 -316 16z"/>
<path d="M3977 2692 l-417 -417 -110 110 -110 110 -217 -218 -218 -217 110
-110 110 -110 -440 -440 -440 -440 218 -218 217 -217 813 815 c735 737 817
823 861 897 103 175 150 387 127 577 -11 91 -62 279 -79 290 -5 3 -196 -183
-425 -412z"/>
</g>
</svg>
