<svg id="Layer_1" data-name="Layer 1" xmlns="http://www.w3.org/2000/svg" viewBox="0 0 618.36 200"><defs><style>.cls-1{fill:#fff;}</style></defs><title>Heart - Horizontal Negative</title><path class="cls-1" d="M195.65,63.44h16.4V86.05h22.8V63.44h16.4v61.81h-16.4V101.06h-22.8v24.19h-16.4Z"/><path class="cls-1" d="M302.5,122.1c-.75.43-1.69.91-2.83,1.43a31.47,31.47,0,0,1-4,1.49,47.71,47.71,0,0,1-5.19,1.2,35.09,35.09,0,0,1-6.12.51q-12,0-18.44-6.07t-6.39-17a27.18,27.18,0,0,1,1.39-8.58,21.83,21.83,0,0,1,4.21-7.5,21.24,21.24,0,0,1,7.14-5.33,23.24,23.24,0,0,1,10.05-2,23,23,0,0,1,8.39,1.53,18.49,18.49,0,0,1,6.86,4.63,22.18,22.18,0,0,1,4.59,7.79,32.77,32.77,0,0,1,1.66,11v3H274.32a7.47,7.47,0,0,0,.61,2.32,6.06,6.06,0,0,0,1.76,2.27,9.47,9.47,0,0,0,3.33,1.72,17.65,17.65,0,0,0,5.15.65,24.47,24.47,0,0,0,7.27-1,23.59,23.59,0,0,0,5.14-2.14ZM289.89,98.84a6.42,6.42,0,0,0-.46-2.32A6.72,6.72,0,0,0,288,94.3a8.2,8.2,0,0,0-2.41-1.72,7.92,7.92,0,0,0-3.47-.69,8,8,0,0,0-3.43.69,7.48,7.48,0,0,0-2.41,1.72,7.06,7.06,0,0,0-1.39,2.22,6.42,6.42,0,0,0-.46,2.32Z"/><path class="cls-1" d="M308.52,103.75l24.93-36.89h15.47v35.68h5.84v12.52h-5.84v10.19H334.56V115.06h-26Zm26-1.21V85.12L322.7,102.54Z"/><path class="cls-1" d="M363,81.69h15.11l.55,5.47a17.34,17.34,0,0,1,4.59-4.4A11.69,11.69,0,0,1,389.88,81a22.64,22.64,0,0,1,3.2.19,12,12,0,0,1,2.37.55l-2,13.35a18.75,18.75,0,0,0-4.54-.56q-10.2,0-10.2,11.21v19.56H363Z"/><path class="cls-1" d="M404.62,93.74h-6.39v-12h6.39V69.55h15.66V81.69H431v12H420.28v15.38q0,5.38,5.1,5.38a7.08,7.08,0,0,0,2.92-.65,17.18,17.18,0,0,0,2.64-1.48l6.11,9.63a23.37,23.37,0,0,1-6.57,3.62,22,22,0,0,1-7.42,1.3,23.11,23.11,0,0,1-8.85-1.49,14,14,0,0,1-5.7-4.12,15.8,15.8,0,0,1-3-6.35,34.69,34.69,0,0,1-.88-8.06Z"/><path class="cls-1" d="M470.43,121.6c-.2.25-.55.63-1,1.15a9.23,9.23,0,0,1-1.88,1.51,14.06,14.06,0,0,1-2.75,1.3,11.09,11.09,0,0,1-3.68.55,12.23,12.23,0,0,1-5.06-1,12.09,12.09,0,0,1-4.08-3,13.54,13.54,0,0,1-2.69-4.67,18.53,18.53,0,0,1-1-6.14,16.1,16.1,0,0,1,1.42-7,14.72,14.72,0,0,1,3.62-4.81,14.07,14.07,0,0,1,4.76-2.75,15,15,0,0,1,4.85-.87,12.72,12.72,0,0,1,4.82.74c1.15.5,2,.87,2.65,1.11V84H476v38.27q0,1.39.06,2.94h-5.43Zm0-18.72a13.86,13.86,0,0,0-2.28-1.32,10.85,10.85,0,0,0-4.76-.84,9.32,9.32,0,0,0-3.74.74,9.12,9.12,0,0,0-3,2.1,9.6,9.6,0,0,0-2,3.34,13,13,0,0,0-.71,4.45,14.69,14.69,0,0,0,.49,3.86,9.29,9.29,0,0,0,1.52,3.18,6.91,6.91,0,0,0,2.59,2.13,8.35,8.35,0,0,0,3.74.77,7.93,7.93,0,0,0,3.71-.8,7.6,7.6,0,0,0,2.5-2,8.19,8.19,0,0,0,1.42-2.65,8.88,8.88,0,0,0,.46-2.69Z"/><path class="cls-1" d="M509.91,121.05a19.66,19.66,0,0,1-1.48,1.42,12.7,12.7,0,0,1-2.57,1.67,19.92,19.92,0,0,1-3.7,1.39,18.43,18.43,0,0,1-4.85.58,16.34,16.34,0,0,1-6.12-1.11,13.56,13.56,0,0,1-4.76-3.15,14.15,14.15,0,0,1-3.06-4.88,17.57,17.57,0,0,1-1.08-6.3,16.39,16.39,0,0,1,1-5.9,14,14,0,0,1,13.29-9.12A13.28,13.28,0,0,1,503,97.08a12.71,12.71,0,0,1,4.36,3.76,16.32,16.32,0,0,1,2.5,5.38,24.72,24.72,0,0,1,.8,6.3H488a8.71,8.71,0,0,0,.83,3.52,9.06,9.06,0,0,0,2.07,2.78,10,10,0,0,0,3,1.86,9.27,9.27,0,0,0,3.52.68,12.74,12.74,0,0,0,6-1.24,12.18,12.18,0,0,0,3.4-2.41Zm-5-12.67a9.26,9.26,0,0,0-2.34-5.68,7.53,7.53,0,0,0-5.93-2.35,9,9,0,0,0-3.56.68,8.45,8.45,0,0,0-2.68,1.79,8,8,0,0,0-1.73,2.57,8.19,8.19,0,0,0-.68,3Z"/><path class="cls-1" d="M512.13,96.52h6.37l9,22.43,8.89-22.43h6l-12.3,28.73h-5.56Z"/><path class="cls-1" d="M547.54,118a11.59,11.59,0,0,0,3.7,2.47,12.58,12.58,0,0,0,5,.93,10.58,10.58,0,0,0,4.63-.9,2.93,2.93,0,0,0,1.85-2.81,3.39,3.39,0,0,0-.4-1.7,3.57,3.57,0,0,0-1.36-1.26,11.8,11.8,0,0,0-2.53-1c-1.05-.31-2.36-.65-3.92-1a24.61,24.61,0,0,1-3.31-1,10.86,10.86,0,0,1-2.93-1.64,7.92,7.92,0,0,1-2.1-2.47,7.06,7.06,0,0,1-.81-3.49,6.94,6.94,0,0,1,1-3.68,8.5,8.5,0,0,1,2.56-2.65,12.43,12.43,0,0,1,3.62-1.64,15.6,15.6,0,0,1,4.17-.56,18.29,18.29,0,0,1,6.27,1,14.52,14.52,0,0,1,4.6,2.69l-3,3.83a11.32,11.32,0,0,0-3.25-2,12,12,0,0,0-4.54-.8,9.07,9.07,0,0,0-4.26.86,3,3,0,0,0-1.61,2.85,2.94,2.94,0,0,0,2.13,2.75,36.08,36.08,0,0,0,5.59,1.69,32.78,32.78,0,0,1,3.8,1.15,11.4,11.4,0,0,1,3.09,1.67,7.25,7.25,0,0,1,2.1,2.5,7.6,7.6,0,0,1,.78,3.58,7.2,7.2,0,0,1-1,3.8,8.71,8.71,0,0,1-2.66,2.75,12.43,12.43,0,0,1-3.83,1.67,18,18,0,0,1-4.51.55q-8.16,0-12.23-4.38Z"/><path class="cls-1" d="M136,50a29.62,29.62,0,0,0-21.06,8.72L79.78,93.83l-7-7a9.93,9.93,0,1,1,14-14l14-14a29.79,29.79,0,0,0-42.13,42.12l21.06,21.07,69-69A29.69,29.69,0,0,0,136,50Z"/><path class="cls-1" d="M162.84,67,136,93.83l-7-7-14,14,7,7L93.83,136l14,14L157,100.85A29.79,29.79,0,0,0,162.84,67Z"/></svg>